<?xml version="1.0" encoding="utf-8"?>
<!-- Generator: Adobe Illustrator 22.0.0, SVG Export Plug-In . SVG Version: 6.00 Build 0)  -->
<svg version="1.1" id="图层_1" xmlns="http://www.w3.org/2000/svg" xmlns:xlink="http://www.w3.org/1999/xlink" x="0px" y="0px"
	 viewBox="0 0 64 45.3" style="enable-background:new 0 0 64 45.3;" xml:space="preserve">
<style type="text/css">
	.st0{fill:#e8352c;}
	.st1{fill:#CCCCCC;}
</style>
<path class="st0" d="M28,45.2c-0.6,0-1.2-0.3-1.5-0.8L21,37.1c-0.6-0.8-0.4-2,0.4-2.6c1.9-1.4,4.2-2.1,6.5-2.1
	c2.3,0,4.6,0.7,6.5,2.1c0.8,0.6,1,1.7,0.5,2.5c0,0,0,0,0,0.1l-5.4,7.4C29.1,45,28.6,45.2,28,45.2z M62.3,45.2H48.2
	c-0.9,0-1.7-0.7-1.7-1.7l0,0v-8.5c0-0.9,0.8-1.7,1.7-1.7h14.1c0.9,0,1.7,0.7,1.7,1.7v8.5C64,44.5,63.2,45.2,62.3,45.2L62.3,45.2z
	 M55.2,41.8c-3.2,0-5.7-2.5-5.7-5.7v-4.7c0-3.2,2.6-5.8,5.8-5.8c3.2,0,5.7,2.6,5.8,5.8v4.7C61,39.2,58.4,41.8,55.2,41.8z M55.2,27.9
	c-1.9,0-3.5,1.6-3.5,3.5v4.7c0,2,1.6,3.6,3.6,3.6c2,0,3.5-1.6,3.6-3.6v-4.7C58.8,29.4,57.2,27.8,55.2,27.9
	C55.2,27.9,55.2,27.9,55.2,27.9z"/>
<path class="st1" d="M40.3,27c-0.7,0-1.4-0.2-1.9-0.6c-6.2-4.4-14.6-4.4-20.8,0c-1.5,1-3.5,0.7-4.6-0.7c-1.1-1.4-0.7-3.5,0.7-4.5
	c0,0,0,0,0,0c8.5-6.2,20-6.2,28.5,0c1.4,1.1,1.8,3.1,0.7,4.5C42.3,26.5,41.3,27,40.3,27z M52.6,14.5c-0.7,0-1.4-0.2-1.9-0.6
	c-13.6-9.8-31.9-9.8-45.4,0c-1.5,1.1-3.5,0.8-4.6-0.7c0,0,0,0,0,0c-1.1-1.4-0.7-3.5,0.7-4.5c0,0,0,0,0,0c15.9-11.5,37.3-11.5,53.2,0
	c1.5,1,1.8,3.1,0.7,4.5c0,0,0,0,0,0C54.6,14,53.7,14.5,52.6,14.5z"/>
</svg>
