<?xml version="1.0" standalone="no"?><!DOCTYPE svg PUBLIC "-//W3C//DTD SVG 1.1//EN" "http://www.w3.org/Graphics/SVG/1.1/DTD/svg11.dtd"><svg class="icon" width="64px" height="45.26px" viewBox="0 0 1448 1024" version="1.1" xmlns="http://www.w3.org/2000/svg"><path d="M1019.01244265 610.577603c-16.094303 0-31.182711-5.02947-43.253438-14.082515-140.825147-99.583497-329.933202-99.583497-470.75835 0-33.194499 24.141454-79.465619 17.100196-103.607072-16.094302-24.141454-32.188605-17.100196-78.459725 15.088408-102.601179 0 0 1.005894 0 1.005894-1.005894 192.125737-138.81336 452.652259-138.81336 645.78389 0 33.194499 23.13556 40.235756 69.40668 17.100197 101.595285l-1.005894 1.005894c-14.082515 20.117878-37.218075 31.182711-60.353635 31.182711z m278.632613-282.656188c-16.094303 0-31.182711-5.02947-43.253438-14.082515-306.797642-221.29666-721.225933-221.29666-1029.02947 0-33.194499 24.141454-79.465619 17.100196-103.607072-16.094303C97.61362165 265.555992 104.65487865 219.284872 136.84348365 195.143418l1.005894-1.005893C496.95350365-64.37721 981.79436765-64.37721 1340.89849365 195.143418c33.194499 23.13556 40.235756 69.40668 17.100197 101.595285l-1.005894 1.005894c-13.076621 19.111984-35.206287 30.176817-59.347741 30.176818z" fill="#CCCCCC" /><path d="M1019.01244265 610.577603c-16.094303 0-31.182711-5.02947-43.253438-14.082515-140.825147-99.583497-329.933202-99.583497-470.75835 0-33.194499 24.141454-79.465619 17.100196-103.607072-16.094302-24.141454-32.188605-17.100196-78.459725 15.088408-102.601179 0 0 1.005894 0 1.005894-1.005894 192.125737-138.81336 452.652259-138.81336 645.78389 0 33.194499 23.13556 40.235756 69.40668 17.100197 101.595285l-1.005894 1.005894c-14.082515 20.117878-37.218075 31.182711-60.353635 31.182711zM739.37393565 1024c-14.082515 0-26.153242-6.035363-34.200393-17.100196L583.46037965 839.921415c-14.082515-19.111984-10.058939-45.265226 9.053045-58.341847 87.51277-63.371316 206.208251-63.371316 294.726916 0 19.111984 13.076621 23.13556 39.229862 10.058939 58.341847l-121.713163 166.978389c-9.053045 10.058939-22.129666 17.100196-36.212181 17.100196z"  /></svg>