<?xml version="1.0" standalone="no"?><!DOCTYPE svg PUBLIC "-//W3C//DTD SVG 1.1//EN" "http://www.w3.org/Graphics/SVG/1.1/DTD/svg11.dtd"><svg class="icon" width="64px" height="45.26px" viewBox="0 0 1448 1024" version="1.1" xmlns="http://www.w3.org/2000/svg"><path d="M911.705101 610.326509a74.099694 74.099694 0 0 1-43.573408-14.092886 408.345086 408.345086 0 0 0-470.543014 0 74.697272 74.697272 0 0 1-103.630015-16.234207 73.10373 73.10373 0 0 1 16.383601-102.783446 551.016875 551.016875 0 0 1 645.135438 0 73.153528 73.153528 0 0 1 16.383601 102.783446 74.19929 74.19929 0 0 1-60.156203 30.327093z m278.869815-282.455284a74.000097 74.000097 0 0 1-43.573408-14.092885 878.141127 878.141127 0 0 0-1028.332442 0 74.697272 74.697272 0 0 1-103.630015-16.234207 73.10373 73.10373 0 0 1 16.284005-102.733648 1027.436075 1027.436075 0 0 1 1202.924865 0 73.153528 73.153528 0 0 1 16.4334 102.783446 74.348685 74.348685 0 0 1-60.106405 30.426689z" fill="#CCCCCC" /><path d="M911.705101 610.326509a74.099694 74.099694 0 0 1-43.573408-14.092886 408.345086 408.345086 0 0 0-470.543014 0 74.697272 74.697272 0 0 1-103.630015-16.234207 73.10373 73.10373 0 0 1 16.383601-102.783446 551.016875 551.016875 0 0 1 645.135438 0 73.153528 73.153528 0 0 1 16.383601 102.783446 74.19929 74.19929 0 0 1-60.156203 30.327093z"  /><path d="M1410.234693 1023.551816h-320.05291a37.946214 37.946214 0 0 1-38.045811-37.647425v-192.171181a37.946214 37.946214 0 0 1 38.045811-37.647425h320.05291a37.946214 37.946214 0 0 1 37.996013 37.647425v192.171181a37.946214 37.946214 0 0 1-37.996013 37.647425z m-160.15095-78.531731a129.475271 129.475271 0 0 1-129.923455-128.97729v-106.020327a129.973253 129.973253 0 0 1 259.946506 0v106.020327a129.475271 129.475271 0 0 1-130.023051 128.97729z m0-314.824102a80.22487 80.22487 0 0 0-80.473861 79.67709v106.169722a80.523659 80.523659 0 0 0 160.99752 0v-106.020327a80.22487 80.22487 0 0 0-80.523659-79.776687z"  /><path d="M632.785488 1023.551816a42.627243 42.627243 0 0 1-34.410543-17.379565l-122.204736-166.724311a41.979867 41.979867 0 0 1 9.362058-58.86145 251.480815 251.480815 0 0 1 294.456645 0 41.930069 41.930069 0 0 1 9.362058 58.86145l-122.10514 166.724311a42.627243 42.627243 0 0 1-34.460342 17.379565z"  /></svg>