<?xml version="1.0" standalone="no"?><!DOCTYPE svg PUBLIC "-//W3C//DTD SVG 1.1//EN" "http://www.w3.org/Graphics/SVG/1.1/DTD/svg11.dtd"><svg class="icon" width="64px" height="45.26px" viewBox="0 0 1448 1024" version="1.1" xmlns="http://www.w3.org/2000/svg"><path d="M632.72 1023.502a42.015 42.015 0 0 1-34.35-17.423L475.91 839.312a42.115 42.115 0 0 1 9.458-58.742 249.255 249.255 0 0 1 147.352-47.79 246.666 246.666 0 0 1 146.855 47.79 41.269 41.269 0 0 1 9.459 58.742l-121.964 166.767a42.663 42.663 0 0 1-34.35 17.423z m777.085 0H1089.71a37.834 37.834 0 0 1-37.834-37.834V793.513a37.734 37.734 0 0 1 37.834-37.336h320.094a37.734 37.734 0 0 1 37.833 37.336v192.155a37.834 37.834 0 0 1-37.833 37.834z m-160.296-78.654a129.83 129.83 0 0 1-129.929-128.934V709.88a130.178 130.178 0 0 1 260.356 0v106.034a129.929 129.929 0 0 1-130.427 128.934z m0-314.618a79.998 79.998 0 0 0-80.148 79.65v106.034a80.397 80.397 0 0 0 160.794 0V709.88a80.098 80.098 0 0 0-80.646-79.65z"  /><path d="M911.494 610.318a75.02 75.02 0 0 1-43.807-13.939 407.808 407.808 0 0 0-470.433 0 74.672 74.672 0 0 1-103.545-16.428 72.93 72.93 0 0 1 16.428-102.549 549.983 549.983 0 0 1 645.165 0 73.626 73.626 0 0 1-43.808 132.916z m278.775-282.26a72.233 72.233 0 0 1-43.807-14.436 879.734 879.734 0 0 0-1027.983 0 74.074 74.074 0 0 1-103.545-15.93 72.93 72.93 0 0 1 16.428-102.55 1026.29 1026.29 0 0 1 1202.715 0 73.328 73.328 0 0 1 16.428 102.55 74.97 74.97 0 0 1-60.236 30.366z"  /></svg>