<?xml version="1.0" encoding="utf-8"?>
<!-- Generator: Adobe Illustrator 22.0.0, SVG Export Plug-In . SVG Version: 6.00 Build 0)  -->
<svg version="1.1" id="图层_1" xmlns="http://www.w3.org/2000/svg" xmlns:xlink="http://www.w3.org/1999/xlink" x="0px" y="0px"
	 viewBox="0 0 64 45.3" style="enable-background:new 0 0 64 45.3;" xml:space="preserve">
<style type="text/css">
	.st0{fill:#CCCCCC;}
	.st1{fill:#e8352c;}
</style>
<path class="st0" d="M45,27c-0.7,0-1.4-0.2-1.9-0.6c-6.2-4.4-14.6-4.4-20.8,0c-1.5,1.1-3.5,0.8-4.6-0.7c-1.1-1.4-0.8-3.5,0.7-4.5
	c0,0,0,0,0,0c8.5-6.1,20-6.1,28.5,0c1.5,1,1.8,3.1,0.8,4.5l0,0C47.1,26.5,46.1,27,45,27z M57.4,14.5c-0.7,0-1.4-0.2-1.9-0.6
	c-13.6-9.8-31.9-9.8-45.5,0c-1.5,1.1-3.5,0.8-4.6-0.7C4.3,11.7,4.6,9.7,6,8.6l0,0C22-2.8,43.4-2.8,59.3,8.6c1.5,1,1.8,3.1,0.8,4.5
	l0,0C59.4,14,58.4,14.5,57.4,14.5z"/>
<path class="st1" d="M45,27c-0.7,0-1.4-0.2-1.9-0.6c-6.2-4.4-14.6-4.4-20.8,0c-1.5,1.1-3.5,0.8-4.6-0.7c-1.1-1.4-0.8-3.5,0.7-4.5
	c0,0,0,0,0,0c8.5-6.1,20-6.1,28.5,0c1.5,1,1.8,3.1,0.8,4.5l0,0C47.1,26.5,46.1,27,45,27z M32.7,45.3c-0.6,0-1.2-0.3-1.5-0.8
	l-5.4-7.4c-0.6-0.8-0.4-2,0.4-2.6c3.9-2.8,9.1-2.8,13,0c0.8,0.6,1,1.7,0.4,2.6l-5.4,7.4C33.9,44.9,33.3,45.3,32.7,45.3z"/>
</svg>
