<?xml version="1.0" standalone="no"?><!DOCTYPE svg PUBLIC "-//W3C//DTD SVG 1.1//EN" "http://www.w3.org/Graphics/SVG/1.1/DTD/svg11.dtd"><svg class="icon" width="64px" height="45.26px" viewBox="0 0 1448 1024" version="1.1" xmlns="http://www.w3.org/2000/svg"><path d="M632.719494 1023.502188a42.015362 42.015362 0 0 1-34.349052-17.423433l-122.461837-166.767136a42.114925 42.114925 0 0 1 9.458434-58.741857 249.254643 249.254643 0 0 1 147.352455-47.789986 246.666018 246.666018 0 0 1 146.854643 47.789986 41.268644 41.268644 0 0 1 9.458435 58.741857l-121.964026 166.767136a42.662518 42.662518 0 0 1-34.349052 17.423433z m777.085076 0h-320.09334a37.833738 37.833738 0 0 1-37.833739-37.833739v-192.155566a37.734176 37.734176 0 0 1 37.833739-37.335926h320.09334a37.734176 37.734176 0 0 1 37.833738 37.335926v192.155566a37.833738 37.833738 0 0 1-37.833738 37.833739z m-160.295576-78.654351a129.82946 129.82946 0 0 1-129.929023-128.933398v-106.034031a130.177929 130.177929 0 0 1 260.355858 0v106.034031a129.929023 129.929023 0 0 1-130.426835 128.933398z m0-314.617404a79.998444 79.998444 0 0 0-80.147788 79.649975v106.034031a80.396694 80.396694 0 0 0 160.793388 0v-106.034031a80.098007 80.098007 0 0 0-80.6456-79.649975z"  /><path d="M911.494409 610.317939a75.020321 75.020321 0 0 1-43.807486-13.938746 407.807876 407.807876 0 0 0-470.432669 0 74.671852 74.671852 0 0 1-103.544969-16.427807 72.929509 72.929509 0 0 1 16.427808-102.549344 549.983082 549.983082 0 0 1 645.164803 0 73.626446 73.626446 0 0 1-43.807487 132.915897z m278.774915-282.259602a72.232572 72.232572 0 0 1-43.807486-14.436558 879.733982 879.733982 0 0 0-1027.982499 0A74.074477 74.074477 0 0 1 14.93437 297.691784a72.929509 72.929509 0 0 1 16.427808-102.549344 1026.289937 1026.289937 0 0 1 1202.714633 0 73.327759 73.327759 0 0 1 16.427807 102.549344 74.97054 74.97054 0 0 1-60.235294 30.366553z" fill="#CCCCCC" /></svg>