<?xml version="1.0" encoding="utf-8"?>
<!-- Generator: Adobe Illustrator 22.0.0, SVG Export Plug-In . SVG Version: 6.00 Build 0)  -->
<svg version="1.1" id="图层_1" xmlns="http://www.w3.org/2000/svg" xmlns:xlink="http://www.w3.org/1999/xlink" x="0px" y="0px"
	 viewBox="0 0 64 45.3" style="enable-background:new 0 0 64 45.3;" xml:space="preserve">
<style type="text/css">
	.st0{fill:#e8352c;}
</style>
<path class="st0" d="M44.1,27c-0.7,0-1.4-0.2-2-0.6c-6.2-4.4-14.6-4.4-20.8,0c-1.5,1.1-3.5,0.7-4.6-0.7c-1.1-1.4-0.8-3.5,0.7-4.5
	c0,0,0,0,0,0c8.5-6.2,20-6.2,28.5,0c1.5,1.1,1.8,3.1,0.7,4.5C46.1,26.5,45.1,27,44.1,27z M56.4,14.5c-0.7,0-1.4-0.2-2-0.6
	C40.9,4.1,22.6,4.1,9,13.9c-1.5,1.1-3.5,0.8-4.6-0.7c-1.1-1.4-0.8-3.5,0.7-4.5c0,0,0,0,0,0C21-2.8,42.5-2.8,58.3,8.6
	c1.5,1.1,1.8,3.1,0.7,4.5C58.5,14,57.4,14.5,56.4,14.5z M31.7,43.5c-0.6,0-1.2-0.3-1.5-0.8l-5.4-7.4c-0.6-0.8-0.4-2,0.4-2.6
	c1.9-1.4,4.2-2.1,6.5-2.1s4.6,0.7,6.5,2.1c0.8,0.6,1,1.7,0.4,2.5l0,0l-5.4,7.3C32.9,43.2,32.3,43.5,31.7,43.5z"/>
</svg>
