<?xml version="1.0" standalone="no"?><!DOCTYPE svg PUBLIC "-//W3C//DTD SVG 1.1//EN" "http://www.w3.org/Graphics/SVG/1.1/DTD/svg11.dtd"><svg class="icon" width="64px" height="45.26px" viewBox="0 0 1448 1024" version="1.1" xmlns="http://www.w3.org/2000/svg"><path d="M996.67321532 610.577603c-16.094303 0-31.182711-5.02947-44.259332-14.082515-140.825147-99.583497-329.933202-99.583497-470.75835 0-33.194499 24.141454-79.465619 16.094303-103.607072-16.094302-24.141454-32.188605-17.100196-78.459725 16.094302-101.595285 0 0 1.005894 0 1.005894-1.005894 192.125737-139.819253 452.652259-139.819253 645.78389 0 33.194499 24.141454 40.235756 70.412574 16.094303 102.601179-14.082515 19.111984-36.212181 30.176817-60.353635 30.176817z m279.638507-282.656188c-16.094303 0-31.182711-5.02947-44.259332-14.082515-306.797642-221.29666-721.225933-221.29666-1028.023576 0-33.194499 24.141454-79.465619 17.100196-103.607072-16.094303-24.141454-32.188605-17.100196-78.459725 16.094302-101.595285 0 0 1.005894 0 1.005894-1.005894C475.62017032-64.37721 960.46103432-64.37721 1319.56516032 195.143418c33.194499 24.141454 40.235756 69.40668 16.094303 102.601179-13.076621 19.111984-36.212181 30.176817-59.347741 30.176818zM718.04060232 983.764244c-14.082515 0-26.153242-6.035363-34.200393-17.100197L561.12115232 799.685658c-14.082515-19.111984-9.053045-45.265226 9.053045-58.341847 43.253438-31.182711 94.554028-48.282908 147.866405-48.282907 53.312377 0 104.612967 16.094303 146.860511 48.282907 19.111984 13.076621 23.13556 38.223969 10.058939 57.335953l-1.005894 1.005894L752.24099532 965.658153c-8.047151 11.064833-21.123772 18.10609-34.200393 18.106091z" /></svg>